<svg xmlns="http://www.w3.org/2000/svg" width="1120" height="600" viewBox="0 0 1120 600"><rect width="1120" height="600" fill="#eef6f8"/><text x="48" y="56" font-family="Microsoft YaHei" font-size="30" font-weight="700" fill="#164b63">第14课 · POD/ROM安全壳热边界与结构响应盲验证</text><text x="48" y="90" font-family="Microsoft YaHei" font-size="16" fill="#587586">高保真验证 → 误差指标 → 快照补样 → ROM更新</text><rect x="55" y="180" width="220" height="220" rx="18" fill="#f7c978" stroke="#a56b17" stroke-width="3"/><text x="105" y="245" font-family="Microsoft YaHei" font-size="22">候选工况</text><text x="87" y="285" font-family="Microsoft YaHei" font-size="17">功率/边界参数</text><text x="87" y="320" font-family="Microsoft YaHei" font-size="17">APDL高保真求解</text><path d="M285 290 H430" stroke="#1686a4" stroke-width="6"/><polygon points="430,290 405,277 405,303" fill="#1686a4"/><rect x="450" y="180" width="220" height="220" rx="18" fill="#bfe3ea" stroke="#1686a4" stroke-width="3"/><text x="500" y="245" font-family="Microsoft YaHei" font-size="22">误差认证</text><text x="490" y="285" font-family="Microsoft YaHei" font-size="17">峰值温度/应力</text><text x="490" y="320" font-family="Microsoft YaHei" font-size="17">相对误差阈值</text><path d="M680 290 H825" stroke="#1686a4" stroke-width="6"/><polygon points="825,290 800,277 800,303" fill="#1686a4"/><rect x="845" y="180" width="220" height="220" rx="18" fill="#cde5c0" stroke="#4f873d" stroke-width="3"/><text x="890" y="245" font-family="Microsoft YaHei" font-size="22">POD/ROM更新</text><text x="882" y="285" font-family="Microsoft YaHei" font-size="17">超过阈值则补样</text><text x="882" y="320" font-family="Microsoft YaHei" font-size="17">未见工况再验证</text><path d="M955 420 C955 500 165 500 165 420" fill="none" stroke="#d08b28" stroke-width="4" stroke-dasharray="10 8"/><text x="380" y="535" font-family="Microsoft YaHei" font-size="18" fill="#344f60">闭环判据：安全相关输出误差、外推检测、守恒量与在线耗时</text></svg>